# xmcd
#
# Track frame offsets:
#	150
#	17387
#	32200
#	46675
#	61050
#	83925
#	97762
#	117375
#	132075
#	151237
#	167075
#	183450
#
# Disc length: 2654 seconds
#
# Revision: 1
# Processed by: cddbd v1.5.1PL0 Copyright (c) Steve Scherf et al.
# Submitted via: audiograbber 1.83.01
#
DISCID=870a5c0c
DTITLE=The Maryland cookies - Into the colorsound
DYEAR=1900
DGENRE=
TTITLE0=Pictures from the past
TTITLE1=Fancyfree
TTITLE2=Lies
TTITLE3=First impression
TTITLE4=Midnight calls
TTITLE5=The Mystery
TTITLE6=Put you in the picture
TTITLE7=Wasteland
TTITLE8=Framed
TTITLE9=Come on Doris
TTITLE10=So long to Sasha
TTITLE11=Outside the village
EXTD=
EXTT0=
EXTT1=
EXTT2=
EXTT3=
EXTT4=
EXTT5=
EXTT6=
EXTT7=
EXTT8=
EXTT9=
EXTT10=
EXTT11=
PLAYORDER=
